# xmcd
#
# Track frame offsets:
#	150
#	10270
#	31085
#	46547
#	59070
#	71632
#	86757
#	107387
#	125602
#	137967
#
# Disc length: 2087
#
# Revision: 2
# Processed by: cddbd v1.5.1PL0 Copyright (c) Steve Scherf et al.
# Submitted via: Easy CD Ripper 1.45
# Normalized: r1:TRMNUM
#
DISCID=8308250a
DTITLE=Herman and Sonnie Harp - Do You Know Him?
DYEAR=1999
DGENRE=Duet
TTITLE0=Come Thou Fount
TTITLE1=The Old Rugged Cross
TTITLE2=God Understands
TTITLE3=Jesus Paid It All
TTITLE4=Mary Did You Know?
TTITLE5=Do You Know Him?
TTITLE6=Sister Meddler
TTITLE7=What's The Verdict?
TTITLE8=A Father Like You
TTITLE9=The Lord Is My Shepherd
EXTD=
EXTT0=
EXTT1=
EXTT2=
EXTT3=
EXTT4=
EXTT5=
EXTT6=
EXTT7=
EXTT8=
EXTT9=
PLAYORDER=
